<svg width="100" height="111" viewBox="0 0 100 111" fill="none" xmlns="http://www.w3.org/2000/svg">
<g clip-path="url(#clip0_207_807)">
<mask id="mask0_207_807" style="mask-type:alpha" maskUnits="userSpaceOnUse" x="0" y="18" width="93" height="93">
<path d="M93 18H0V111H93V18Z" fill="#D9D9D9"/>
</mask>
<g mask="url(#mask0_207_807)">
<path d="M34.8752 64.4888H58.1252C59.2231 64.4888 60.1434 64.1174 60.8861 63.3747C61.6288 62.632 62.0002 61.7117 62.0002 60.6138C62.0002 59.5158 61.6288 58.5955 60.8861 57.8528C60.1434 57.1101 59.2231 56.7388 58.1252 56.7388H34.8752C33.7773 56.7388 32.857 57.1101 32.1142 57.8528C31.3715 58.5955 31.0002 59.5158 31.0002 60.6138C31.0002 61.7117 31.3715 62.632 32.1142 63.3747C32.857 64.1174 33.7773 64.4888 34.8752 64.4888ZM38.7502 78.0513H54.2502C55.3481 78.0513 56.2684 77.6799 57.0111 76.9372C57.7538 76.1945 58.1252 75.2742 58.1252 74.1763C58.1252 73.0783 57.7538 72.158 57.0111 71.4153C56.2684 70.6726 55.3481 70.3013 54.2502 70.3013H38.7502C37.6523 70.3013 36.732 70.6726 35.9892 71.4153C35.2465 72.158 34.8752 73.0783 34.8752 74.1763C34.8752 75.2742 35.2465 76.1945 35.9892 76.9372C36.732 77.6799 37.6523 78.0513 38.7502 78.0513ZM27.1252 107.114C24.9939 107.114 23.1695 106.355 21.6517 104.837C20.134 103.319 19.3752 101.495 19.3752 99.3638V29.6138C19.3752 27.4825 20.134 25.658 21.6517 24.1403C23.1695 22.6226 24.9939 21.8638 27.1252 21.8638H65.8752C68.0064 21.8638 69.8309 22.6226 71.3486 24.1403C72.8663 25.658 73.6252 27.4825 73.6252 29.6138V41.6263C74.7877 42.0783 75.7241 42.7888 76.4346 43.7575C77.145 44.7263 77.5002 45.8242 77.5002 47.0513V54.8013C77.5002 56.0283 77.145 57.1263 76.4346 58.095C75.7241 59.0638 74.7877 59.7742 73.6252 60.2263V99.3638C73.6252 101.495 72.8663 103.319 71.3486 104.837C69.8309 106.355 68.0064 107.114 65.8752 107.114H27.1252ZM27.1252 99.3638H65.8752V29.6138H27.1252V99.3638Z" fill="#1C1B1F"/>
</g>
<mask id="mask1_207_807" style="mask-type:alpha" maskUnits="userSpaceOnUse" x="54" y="0" width="46" height="46">
<path d="M100 0H54V46H100V0Z" fill="#F7C56B"/>
</mask>
<g mask="url(#mask1_207_807)">
<path d="M65.5 34.5036L61.0916 38.9119C60.4847 39.5189 59.7899 39.6546 59.0073 39.3192C58.2246 38.9838 57.8333 38.3848 57.8333 37.5223V7.67025C57.8333 6.61608 58.2087 5.71365 58.9594 4.96296C59.71 4.21226 60.6125 3.83691 61.6666 3.83691H92.3333C93.3875 3.83691 94.2899 4.21226 95.0406 4.96296C95.7913 5.71365 96.1666 6.61608 96.1666 7.67025V30.6702C96.1666 31.7244 95.7913 32.6268 95.0406 33.3775C94.2899 34.1282 93.3875 34.5036 92.3333 34.5036H65.5ZM69.3333 21.0869C69.8764 21.0869 70.3316 20.9032 70.6989 20.5359C71.0663 20.1685 71.25 19.7133 71.25 19.1702C71.25 18.6272 71.0663 18.172 70.6989 17.8046C70.3316 17.4373 69.8764 17.2536 69.3333 17.2536C68.7903 17.2536 68.335 17.4373 67.9677 17.8046C67.6003 18.172 67.4166 18.6272 67.4166 19.1702C67.4166 19.7133 67.6003 20.1685 67.9677 20.5359C68.335 20.9032 68.7903 21.0869 69.3333 21.0869ZM77 21.0869C77.543 21.0869 77.9982 20.9032 78.3656 20.5359C78.733 20.1685 78.9166 19.7133 78.9166 19.1702C78.9166 18.6272 78.733 18.172 78.3656 17.8046C77.9982 17.4373 77.543 17.2536 77 17.2536C76.4569 17.2536 76.0017 17.4373 75.6344 17.8046C75.267 18.172 75.0833 18.6272 75.0833 19.1702C75.0833 19.7133 75.267 20.1685 75.6344 20.5359C76.0017 20.9032 76.4569 21.0869 77 21.0869ZM84.6666 21.0869C85.2097 21.0869 85.6649 20.9032 86.0323 20.5359C86.3996 20.1685 86.5833 19.7133 86.5833 19.1702C86.5833 18.6272 86.3996 18.172 86.0323 17.8046C85.6649 17.4373 85.2097 17.2536 84.6666 17.2536C84.1236 17.2536 83.6684 17.4373 83.301 17.8046C82.9337 18.172 82.75 18.6272 82.75 19.1702C82.75 19.7133 82.9337 20.1685 83.301 20.5359C83.6684 20.9032 84.1236 21.0869 84.6666 21.0869Z" fill="#F97015"/>
</g>
</g>
<defs>
<clipPath id="clip0_207_807">
<rect width="100" height="111" fill="white"/>
</clipPath>
</defs>
</svg>
